#!OML:ASF H:\BabyWalks\Project 1\Capture day 1\Session 1\baby.ASF
:FULLY-SPECIFIED
:DEGREES
496
root 18.1103 17.7807 -12.4125 9.86252 50.9347 1.47774
lowerback 20.5795 -1.97972 -3.98185
upperback 3.50245 -3.309 0.152977
thorax -7.43892 -1.44144 3.29582
lowerneck -4.20793 -0.447877 4.62206
upperneck -3.17372 -0.796453 -2.53083
head -0.30559 -0.438632 -1.57158
rclavicle 6.32135e-014 -1.90833e-014
rhumerus -66.5333 15.2745 -93.7867
rradius 49.4034
rwrist -3.82551
rhand 2.7974 -18.4262
rfingers 7.12502
rthumb 28.2669 -46.3137
lclavicle 6.32135e-014 -1.90833e-014
lhumerus -43.8416 -13.2501 73.2778
lradius 72.4577
lwrist -2.58011
lhand -5.2637 5.88688
lfingers 7.12502
lthumb 20.54 34.8203
rfemur -30.303 4.00066 18.255
rtibia 29.5893
rfoot -9.98395 1.85533
rtoes 6.58227
lfemur -3.74433 -4.04097 -14.2765
ltibia 24.4473
lfoot -20.646 -22.0932
ltoes 2.94406
497
root 18.2071 17.7612 -12.2769 10.0051 51.4464 1.70053
lowerback 20.5928 -2.12108 -3.79383
upperback 3.53394 -3.43608 0.318872
thorax -7.40187 -1.50617 3.40076
lowerneck -4.18423 -0.489447 4.76566
upperneck -3.34745 -0.863281 -2.92598
head -0.368545 -0.474285 -1.72509
rclavicle 2.84262e-014 -8.34896e-015
rhumerus -66.8384 14.8465 -93.6835
rradius 49.2129
rwrist -4.1692
rhand 2.91856 -18.4036
rfingers 7.12502
rthumb 28.3827 -46.2718
lclavicle 2.84262e-014 -8.34896e-015
lhumerus -44.3237 -13.0294 73.6896
lradius 71.8073
lwrist -2.77605
lhand -5.26805 6.0092
lfingers 7.12502
lthumb 20.5358 34.9431
rfemur -30.0071 4.05025 18.241
rtibia 30.2337
rfoot -9.92578 1.8087
rtoes 7.93334
lfemur -4.23514 -3.32812 -13.9862
ltibia 26.1167
lfoot -19.7114 -23.8045
ltoes 3.28676
498
root 18.301 17.7402 -12.142 10.0141 51.9659 1.8192
lowerback 20.6523 -2.24041 -3.54567
upperback 3.6001 -3.51898 0.504139
thorax -7.3576 -1.55086 3.48246
lowerneck -4.17342 -0.546933 4.91353
upperneck -3.55264 -0.953158 -3.319
head -0.440963 -0.521298 -1.87994
rclavicle -9.44227e-015 1.51076e-014
rhumerus -67.0412 14.3788 -93.5406
rradius 48.9665
rwrist -4.38981
rhand 3.00344 -18.3482
rfingers 7.12502
rthumb 28.4638 -46.2029
lclavicle -9.44227e-015 1.51076e-014
lhumerus -44.7722 -12.803 74.1515
lradius 71.0401
lwrist -3.09997
lhand -5.28596 6.15367
lfingers 7.12502
lthumb 20.5186 35.0894
rfemur -29.6498 4.04385 18.358
rtibia 30.9741
rfoot -10.2246 1.78122
rtoes 8.92784
lfemur -4.89763 -2.64048 -13.5913
ltibia 28.1621
lfoot -18.5171 -25.5238
ltoes 3.53929
499
root 18.3926 17.7182 -12.008 9.84192 52.48 1.76738
lowerback 20.7516 -2.33969 -3.21102
upperback 3.70146 -3.55304 0.719901
thorax -7.3035 -1.57367 3.53652
lowerneck -4.17372 -0.617536 5.06485
upperneck -3.79247 -1.06249 -3.70686
head -0.524261 -0.577829 -2.03497
rclavicle -2.38542e-014 1.66979e-014
rhumerus -67.1294 13.8988 -93.3623
rradius 48.6575
rwrist -4.49255
rhand 3.06144 -18.262
rfingers 7.12502
rthumb 28.5193 -46.1074
lclavicle -2.38542e-014 1.66979e-014
lhumerus -45.1949 -12.5577 74.6612
lradius 70.1714
lwrist -3.53246
lhand -5.31704 6.31368
lfingers 7.12502
lthumb 20.4888 35.2526
rfemur -29.2265 4.0333 18.6214
rtibia 31.7202
rfoot -10.7894 1.68053
rtoes 9.51316
lfemur -5.72007 -2.00436 -13.0605
ltibia 30.5501
lfoot -17.0545 -27.171
ltoes 3.49679
500
root 18.483 17.6955 -11.8755 9.42692 52.9745 1.45513
lowerback 20.8767 -2.42198 -2.74107
upperback 3.83471 -3.53019 0.976276
thorax -7.2386 -1.57145 3.54334
lowerneck -4.16774 -0.700444 5.21538
upperneck -4.07791 -1.18956 -4.08214
head -0.62496 -0.642817 -2.18686
rclavicle 7.08667e-014 -4.82053e-014
rhumerus -67.1003 13.4219 -93.1541
rradius 48.2818
rwrist -4.4821
rhand 3.09806 -18.1482
rfingers 7.12502
rthumb 28.5543 -45.9877
lclavicle 7.08667e-014 -4.82053e-014
lhumerus -45.6064 -12.3003 75.2185
lradius 69.2227
lwrist -4.04186
lhand -5.36943 6.49401
lfingers 7.12502
lthumb 20.4384 35.4383
rfemur -28.7345 4.06286 19.0655
rtibia 32.396
rfoot -11.5024 1.47169
rtoes 9.78008
lfemur -6.68722 -1.43739 -12.3495
ltibia 33.234
lfoot -15.3679 -28.6722
ltoes 3.14528
